<svg width="24" height="24" viewBox="0 0 24 24" fill="none" xmlns="http://www.w3.org/2000/svg">
<g clip-path="url(#clip0_1128_12047)">
<path fill-rule="evenodd" clip-rule="evenodd" d="M8.13623 15.147C7.42623 14.29 6.99023 13.2 6.99023 12C6.99023 9.24 9.23123 7 11.9902 7C13.1912 7 14.2812 7.435 15.1382 8.145L17.0352 6.248C15.5942 5.51 13.9132 5 12.0002 5C5.88523 5 1.97523 10.355 1.15823 11.584C1.68723 12.418 3.53723 15.111 6.27123 17.012L8.13623 15.147ZM14.4302 8.853C13.7572 8.323 12.9152 8 11.9902 8C9.78323 8 7.99023 9.792 7.99023 12C7.99023 12.923 8.31423 13.765 8.84423 14.439L14.4302 8.853ZM21.9902 2.707L2.69823 22L1.99023 21.293L5.53823 17.745C3.24023 16.133 1.30423 13.86 -0.00976562 11.576C2.40823 7.473 6.93323 4 12.0002 4C14.0652 4 16.0212 4.566 17.7822 5.501L21.2832 2L21.9902 2.707ZM19.5252 6.586L18.7912 7.32C21.0272 8.939 22.4192 10.924 22.8522 11.594C22.1132 12.897 18.3062 19 12.0002 19C10.5752 19 9.25123 18.632 8.04923 18.062L7.30123 18.81C8.77623 19.552 10.3582 20 12.0002 20C17.2742 20 21.7582 15.994 23.9992 11.564C22.9122 9.673 21.3692 7.927 19.5252 6.586ZM15.9902 12C15.9902 11.446 15.8772 10.918 15.6732 10.438L16.4072 9.704C16.7682 10.394 16.9902 11.168 16.9902 12C16.9902 14.759 14.7502 17 11.9902 17C11.1582 17 10.3862 16.777 9.69523 16.417L10.4292 15.682C10.9092 15.886 11.4362 16 11.9902 16C14.1982 16 15.9902 14.208 15.9902 12Z" fill="#CFD0D2"/>
</g>
<defs>
<clipPath id="clip0_1128_12047">
<rect width="24" height="24" fill="white"/>
</clipPath>
</defs>
</svg>
